<svg width="135" height="35" viewBox="0 0 135 35" fill="none" xmlns="http://www.w3.org/2000/svg">
<path d="M5.1 34V0.849998H12.2V34H5.1ZM0.15 13.9V7.55H17.6V13.9H0.15ZM33.5336 34.5C30.6669 34.5 28.1669 33.9167 26.0336 32.75C23.9003 31.5833 22.2336 29.9833 21.0336 27.95C19.8336 25.9167 19.2336 23.5833 19.2336 20.95C19.2336 18.9167 19.5669 17.05 20.2336 15.35C20.9003 13.65 21.8336 12.1833 23.0336 10.95C24.2336 9.68333 25.6503 8.71667 27.2836 8.05C28.9503 7.35 30.7503 7 32.6836 7C34.4836 7 36.1503 7.33333 37.6836 8C39.2169 8.63333 40.5336 9.55 41.6336 10.75C42.7669 11.9167 43.6336 13.3 44.2336 14.9C44.8336 16.5 45.1003 18.25 45.0336 20.15L44.9836 22.35H23.7336L22.5836 18H39.1336L38.3336 18.9V17.8C38.2669 16.9 37.9669 16.0833 37.4336 15.35C36.9336 14.6167 36.2836 14.05 35.4836 13.65C34.6836 13.25 33.7836 13.05 32.7836 13.05C31.3169 13.05 30.0669 13.3333 29.0336 13.9C28.0336 14.4667 27.2669 15.3 26.7336 16.4C26.2003 17.5 25.9336 18.8333 25.9336 20.4C25.9336 22 26.2669 23.3833 26.9336 24.55C27.6336 25.7167 28.6003 26.6333 29.8336 27.3C31.1003 27.9333 32.5836 28.25 34.2836 28.25C35.4503 28.25 36.5169 28.0667 37.4836 27.7C38.4503 27.3333 39.4836 26.7 40.5836 25.8L43.9836 30.55C43.0169 31.4167 41.9503 32.15 40.7836 32.75C39.6169 33.3167 38.4169 33.75 37.1836 34.05C35.9503 34.35 34.7336 34.5 33.5336 34.5ZM59.1805 34.5C56.9805 34.5 54.9971 33.9 53.2305 32.7C51.4638 31.5 50.0638 29.8667 49.0305 27.8C47.9971 25.7333 47.4805 23.3667 47.4805 20.7C47.4805 18.0333 47.9971 15.6833 49.0305 13.65C50.0971 11.5833 51.5305 9.96667 53.3305 8.8C55.1305 7.6 57.1805 7 59.4805 7C60.7805 7 61.9638 7.2 63.0305 7.6C64.1305 7.96667 65.0805 8.48333 65.8805 9.15C66.7138 9.81667 67.4138 10.5833 67.9805 11.45C68.5471 12.3167 68.9471 13.25 69.1805 14.25L67.6805 14V7.55H74.7305V34H67.5805V27.65L69.1805 27.5C68.9138 28.4333 68.4805 29.3167 67.8805 30.15C67.2805 30.9833 66.5305 31.7333 65.6305 32.4C64.7638 33.0333 63.7805 33.55 62.6805 33.95C61.5805 34.3167 60.4138 34.5 59.1805 34.5ZM61.1305 28.35C62.4638 28.35 63.6305 28.0333 64.6305 27.4C65.6305 26.7667 66.3971 25.8833 66.9305 24.75C67.4971 23.5833 67.7805 22.2333 67.7805 20.7C67.7805 19.2 67.4971 17.8833 66.9305 16.75C66.3971 15.6167 65.6305 14.7333 64.6305 14.1C63.6305 13.4333 62.4638 13.1 61.1305 13.1C59.8305 13.1 58.6805 13.4333 57.6805 14.1C56.7138 14.7333 55.9471 15.6167 55.3805 16.75C54.8138 17.8833 54.5305 19.2 54.5305 20.7C54.5305 22.2333 54.8138 23.5833 55.3805 24.75C55.9471 25.8833 56.7138 26.7667 57.6805 27.4C58.6805 28.0333 59.8305 28.35 61.1305 28.35ZM80.7988 34V7.55H87.6488L87.7988 12.6L86.7488 12.8C87.1155 11.9333 87.5988 11.15 88.1988 10.45C88.7988 9.75 89.4988 9.15 90.2988 8.65C91.1322 8.15 91.9988 7.76667 92.8988 7.5C93.7988 7.2 94.6988 7.05 95.5988 7.05C96.9655 7.05 98.1988 7.26667 99.2988 7.7C100.399 8.13333 101.332 8.81667 102.099 9.75C102.865 10.65 103.465 11.85 103.899 13.35L102.799 13.25L103.149 12.45C103.582 11.65 104.132 10.9333 104.799 10.3C105.465 9.63333 106.215 9.06667 107.049 8.6C107.882 8.1 108.749 7.71667 109.649 7.45C110.549 7.18333 111.432 7.05 112.299 7.05C114.365 7.05 116.082 7.46667 117.449 8.3C118.815 9.1 119.832 10.3167 120.499 11.95C121.199 13.5833 121.549 15.5833 121.549 17.95V34H114.449V18.45C114.449 17.25 114.282 16.2667 113.949 15.5C113.615 14.7333 113.132 14.1667 112.499 13.8C111.865 13.4 111.049 13.2 110.049 13.2C109.282 13.2 108.565 13.3333 107.899 13.6C107.265 13.8333 106.699 14.1833 106.199 14.65C105.732 15.0833 105.365 15.6 105.099 16.2C104.832 16.8 104.699 17.4667 104.699 18.2V34H97.5988V18.4C97.5988 17.3 97.4155 16.3667 97.0488 15.6C96.7155 14.8 96.2322 14.2 95.5988 13.8C94.9655 13.4 94.1822 13.2 93.2488 13.2C92.4822 13.2 91.7655 13.3333 91.0988 13.6C90.4655 13.8333 89.9155 14.1833 89.4488 14.65C88.9822 15.0833 88.5988 15.6 88.2988 16.2C88.0322 16.8 87.8988 17.45 87.8988 18.15V34H80.7988Z" fill="#232340"/>
<path d="M130.208 34.572C128.856 34.572 127.816 34.1907 127.088 33.428C126.36 32.6653 125.996 31.5733 125.996 30.152C125.996 28.8693 126.377 27.8293 127.14 27.032C127.937 26.2 128.96 25.784 130.208 25.784C131.525 25.784 132.548 26.1653 133.276 26.928C134.004 27.6907 134.368 28.7653 134.368 30.152C134.368 31.4693 133.986 32.544 133.224 33.376C132.461 34.1733 131.456 34.572 130.208 34.572Z" fill="#5468E7"/>
</svg>
